<?xml version="1.0" ?><svg id="Layer_1" style="enable-background:new 0 0 595.3 595.3;" version="1.1" viewBox="0 0 595.3 595.3" xml:space="preserve" xmlns="http://www.w3.org/2000/svg" xmlns:xlink="http://www.w3.org/1999/xlink"><style type="text/css">
	.st0{fill:#58595B;}
	.st1{fill:#3A1811;}
	.st2{fill:#726658;}
	.st3{fill:#0DB4E7;}
	.st4{fill:#009DD4;}
	.st5{fill:#009444;}
	.st6{fill:#FBB040;}
	.st7{fill:#EFF8F5;}
	.st8{fill:#D81F26;}
	.st9{fill:#BCBEC0;}
	.st10{fill:#735032;}
	.st11{fill:#1C75BC;}
	.st12{fill:#FFD128;}
	.st13{fill:#D1AE23;}
	.st14{fill:#F9ED32;}
	.st15{fill:#939598;}
	.st16{fill:#9B8579;}
	.st17{fill:#F1B279;}
	.st18{fill:#603913;}
	.st19{fill:#754C29;}
	.st20{fill:#8B5E3C;}
	.st21{fill:#C49A6C;}
	.st22{fill:#F7941E;}
	.st23{fill:#00AEEF;}
	.st24{fill:#FAF5AE;}
	.st25{fill:#F5F7D5;}
	.st26{fill:#7ABE90;}
	.st27{fill:#BFA863;}
	.st28{fill:#2B3990;}
	.st29{fill:#EF3824;}
	.st30{fill:#BE1E2D;}
	.st31{fill:#A67A44;}
	.st32{fill:#00A388;}
	.st33{fill:#ABE0F1;}
	.st34{fill:#594A42;}
</style><g><g><path class="st3" d="M215.6,179.7v177.5c0,3.6,3,6.6,6.6,6.6h190.4c1.7,0,3.3,0.6,4.5,1.8l58,53.9c4.2,3.9,11.1,0.9,11.1-4.8    v-44.2c0-3.6,3-6.6,6.6-6.6h33c3.6,0,6.6-3,6.6-6.6V179.7c0-3.6-3-6.6-6.6-6.6H222.2C218.6,173.1,215.6,176.1,215.6,179.7z"/><path class="st1" d="M479.6,426.3c-2.8,0-5.6-1.1-7.8-3.1l-58-53.9c-0.3-0.3-0.7-0.4-1.1-0.4H222.2c-6.4,0-11.6-5.2-11.6-11.6    V179.7c0-6.4,5.2-11.6,11.6-11.6h303.6c6.4,0,11.6,5.2,11.6,11.6v177.5c0,6.4-5.2,11.6-11.6,11.6h-33c-0.9,0-1.6,0.7-1.6,1.6v44.2    c0,4.7-2.7,8.8-7,10.6C482.7,426,481.1,426.3,479.6,426.3z M222.2,178.1c-0.9,0-1.6,0.7-1.6,1.6v177.5c0,0.9,0.7,1.6,1.6,1.6    h190.4c2.9,0,5.7,1.1,7.9,3.1l58,53.9c0.6,0.6,1.3,0.5,1.7,0.3c0.4-0.2,1-0.6,1-1.5v-44.2c0-6.4,5.2-11.6,11.6-11.6h33    c0.9,0,1.6-0.7,1.6-1.6V179.7c0-0.9-0.7-1.6-1.6-1.6H222.2z"/></g><g><g><circle class="st28" cx="374" cy="322.1" r="12.4"/><path class="st1" d="M374,337c-8.2,0-14.9-6.7-14.9-14.9c0-8.2,6.7-14.9,14.9-14.9c8.2,0,14.9,6.7,14.9,14.9     C389,330.3,382.2,337,374,337z M374,312.1c-5.5,0-9.9,4.5-9.9,9.9c0,5.5,4.5,9.9,9.9,9.9s9.9-4.5,9.9-9.9     C384,316.6,379.5,312.1,374,312.1z"/></g><g><circle class="st28" cx="448.8" cy="322.1" r="12.4"/><path class="st1" d="M448.8,337c-8.2,0-14.9-6.7-14.9-14.9c0-8.2,6.7-14.9,14.9-14.9c8.2,0,14.9,6.7,14.9,14.9     C463.8,330.3,457.1,337,448.8,337z M448.8,312.1c-5.5,0-9.9,4.5-9.9,9.9c0,5.5,4.5,9.9,9.9,9.9s9.9-4.5,9.9-9.9     C458.8,316.6,454.3,312.1,448.8,312.1z"/></g><g><circle class="st28" cx="299.2" cy="322.1" r="12.4"/><path class="st1" d="M299.2,337c-8.2,0-14.9-6.7-14.9-14.9c0-8.2,6.7-14.9,14.9-14.9s14.9,6.7,14.9,14.9     C314.1,330.3,307.4,337,299.2,337z M299.2,312.1c-5.5,0-9.9,4.5-9.9,9.9c0,5.5,4.5,9.9,9.9,9.9s9.9-4.5,9.9-9.9     C309.1,316.6,304.7,312.1,299.2,312.1z"/></g></g><g><path class="st22" d="M395.3,238.1v177.5c0,3.6-3,6.6-6.6,6.6H198.3c-1.7,0-3.3,0.6-4.5,1.8l-58,53.9c-4.2,3.9-11.1,0.9-11.1-4.8    v-44.2c0-3.6-3-6.6-6.6-6.6h-33c-3.6,0-6.6-3-6.6-6.6V238.1c0-3.6,3-6.6,6.6-6.6h303.6C392.4,231.5,395.3,234.5,395.3,238.1z"/><path class="st1" d="M131.4,484.7c-1.6,0-3.2-0.3-4.7-1c-4.3-1.9-7-5.9-7-10.6v-44.2c0-0.9-0.7-1.6-1.6-1.6h-33    c-6.4,0-11.6-5.2-11.6-11.6V238.1c0-6.4,5.2-11.6,11.6-11.6h303.6c6.4,0,11.6,5.2,11.6,11.6v177.5c0,6.4-5.2,11.6-11.6,11.6H198.3    c-0.4,0-0.8,0.2-1.1,0.4l-58,53.9C137,483.6,134.2,484.7,131.4,484.7z M85.1,236.5c-0.9,0-1.6,0.7-1.6,1.6v177.5    c0,0.9,0.7,1.6,1.6,1.6h33c6.4,0,11.6,5.2,11.6,11.6V473c0,0.9,0.5,1.3,1,1.5c0.4,0.2,1.1,0.3,1.7-0.3l58-53.9    c2.2-2,5-3.1,7.9-3.1h190.4c0.9,0,1.6-0.7,1.6-1.6V238.1c0-0.9-0.7-1.6-1.6-1.6H85.1z"/></g><g><g><circle class="st8" cx="236.9" cy="368" r="12.4"/><path class="st1" d="M236.9,383c-8.2,0-14.9-6.7-14.9-14.9c0-8.2,6.7-14.9,14.9-14.9c8.2,0,14.9,6.7,14.9,14.9     C251.9,376.3,245.2,383,236.9,383z M236.9,358.1c-5.5,0-9.9,4.5-9.9,9.9c0,5.5,4.5,9.9,9.9,9.9s9.9-4.5,9.9-9.9     C246.9,362.5,242.4,358.1,236.9,358.1z"/></g><g><circle class="st8" cx="311.7" cy="368" r="12.4"/><path class="st1" d="M311.7,383c-8.2,0-14.9-6.7-14.9-14.9c0-8.2,6.7-14.9,14.9-14.9c8.2,0,14.9,6.7,14.9,14.9     C326.7,376.3,320,383,311.7,383z M311.7,358.1c-5.5,0-9.9,4.5-9.9,9.9c0,5.5,4.5,9.9,9.9,9.9s9.9-4.5,9.9-9.9     C321.7,362.5,317.2,358.1,311.7,358.1z"/></g><g><circle class="st8" cx="162.1" cy="368" r="12.4"/><path class="st1" d="M162.1,383c-8.2,0-14.9-6.7-14.9-14.9c0-8.2,6.7-14.9,14.9-14.9c8.2,0,14.9,6.7,14.9,14.9     C177.1,376.3,170.4,383,162.1,383z M162.1,358.1c-5.5,0-9.9,4.5-9.9,9.9c0,5.5,4.5,9.9,9.9,9.9s9.9-4.5,9.9-9.9     C172.1,362.5,167.6,358.1,162.1,358.1z"/></g></g><g><path class="st1" d="M515.5,291c-1.4,0-2.5-1.1-2.5-2.5v-87.8c0-1.4,1.1-2.5,2.5-2.5s2.5,1.1,2.5,2.5v87.8    C518,289.9,516.9,291,515.5,291z"/></g><g><path class="st1" d="M510.3,351.7h-15.6c-1.4,0-2.5-1.1-2.5-2.5s1.1-2.5,2.5-2.5h15.6c1.9,0,3.4-1.5,3.4-3.4v-26.3    c0-1.4,1.1-2.5,2.5-2.5s2.5,1.1,2.5,2.5v26.3C518.7,347.9,514.9,351.7,510.3,351.7z"/></g><g><path class="st1" d="M468.5,397.1c-0.6,0-1.2-0.2-1.7-0.7l-34.9-32.5c-1-0.9-1.1-2.5-0.1-3.5c0.9-1,2.5-1.1,3.5-0.1l34.9,32.5    c1,0.9,1.1,2.5,0.1,3.5C469.9,396.8,469.2,397.1,468.5,397.1z"/></g><g><path class="st1" d="M491.6,191.1H264.3c-1.4,0-2.5-1.1-2.5-2.5s1.1-2.5,2.5-2.5h227.4c1.4,0,2.5,1.1,2.5,2.5    S493,191.1,491.6,191.1z"/></g><g><path class="st1" d="M378.2,349c-1.4,0-2.5-1.1-2.5-2.5v-87.8c0-1.4,1.1-2.5,2.5-2.5s2.5,1.1,2.5,2.5v87.8    C380.7,347.9,379.6,349,378.2,349z"/></g><g><path class="st1" d="M373,409.7h-15.6c-1.4,0-2.5-1.1-2.5-2.5s1.1-2.5,2.5-2.5H373c1.9,0,3.4-1.5,3.4-3.4v-26.3    c0-1.4,1.1-2.5,2.5-2.5s2.5,1.1,2.5,2.5v26.3C381.4,405.9,377.6,409.7,373,409.7z"/></g><g><path class="st1" d="M354.4,249.1H127c-1.4,0-2.5-1.1-2.5-2.5s1.1-2.5,2.5-2.5h227.4c1.4,0,2.5,1.1,2.5,2.5    S355.7,249.1,354.4,249.1z"/></g><g><path class="st1" d="M341.5,409.7H215.6c-1.4,0-2.5-1.1-2.5-2.5s1.1-2.5,2.5-2.5h125.9c1.4,0,2.5,1.1,2.5,2.5    S342.9,409.7,341.5,409.7z"/></g><g><path class="st1" d="M143.7,455.5c-0.7,0-1.3-0.3-1.8-0.8c-0.9-1-0.9-2.6,0.1-3.5l39.6-36.8c1-0.9,2.6-0.9,3.5,0.1    c0.9,1,0.9,2.6-0.1,3.5l-39.6,36.8C144.9,455.3,144.3,455.5,143.7,455.5z"/></g></g></svg>